<svg width="180" height="49" xmlns="http://www.w3.org/2000/svg" xmlns:xlink="http://www.w3.org/1999/xlink"><defs><path id="path-1" d="M0 .221h118.484v39.464H0z"/><path id="path-3" d="M0 48.646h179.854V.352H0z"/></defs><g id="Page-1" stroke="none" stroke-width="1" fill="none" fill-rule="evenodd"><g id="ocbc-red"><g id="Group-3" transform="translate(0 .13)"><mask id="mask-2" fill="#fff"><use xlink:href="#path-1"/></mask><path d="M65.036 19.643c0 6.504-4.682 10.575-10.591 10.575-6.607 0-9.828-3.812-9.828-10.016 0-6.437 4.768-10.505 10.589-10.505 5.626 0 9.83 3.014 9.83 9.946zm-5.22.298c0-3.975-1.735-6.09-4.993-6.09-2.56 0-4.99 1.845-4.99 5.975 0 3.8 1.514 6.2 4.9 6.2 2.337 0 5.084-1.61 5.084-6.085zm35.686-4.303c0-1.259-.92-2.025-2.967-2.025-.766 0-1.458.035-2.06.064v4.33c.41.03.885.03 1.454.03 2.405 0 3.573-.91 3.573-2.4zm.287 8.076c0-1.524-1.361-2.314-3.672-2.314-.25 0-1.26 0-1.643.029v4.654c.412.064 1.146.088 1.898.088 2.18 0 3.417-.935 3.417-2.457zm5.272-.061c0 3.163-2.493 6.237-8.786 6.237-1.261 0-3.63-.06-6.731-.06V10.104c1.96-.085 5.153-.143 7.775-.143 4.648 0 7.398 1.67 7.398 4.976 0 1.84-1.267 3.509-3.1 4.266 2.18.623 3.444 2.49 3.444 4.45zm-89.022-9.88l-8.22-5.488A19.801 19.801 0 018.665 3.61l7.128 7.292a9.855 9.855 0 00-3.754 2.87zm12.18 14.967c.697-.36 1.346-.8 1.938-1.302a8.992 8.992 0 001.071-1.065A9.87 9.87 0 0029.6 19.95c0-5.45-4.418-9.867-9.866-9.867a9.896 9.896 0 00-3.26.55L9.587 3.026A19.64 19.64 0 0119.734.221c10.897 0 19.73 8.833 19.73 19.733 0 10.898-8.833 19.73-19.73 19.73a19.675 19.675 0 01-13.896-5.719h24.205L4.668 32.7l26.81-.17-28.056-1.46 10.779-.163s5.655.168 10.018-2.166zm-22.396-.488c-.17-.373-.333-.75-.485-1.137h5.88l1.094 1.152h8.797l-1.928 2.038H4.348a2.923 2.923 0 00-2.525-2.053zm-.723-1.79A19.671 19.671 0 010 19.953c0-1.269.117-2.507.35-3.707l9.525 3.344-.009.36c0 2.34.818 4.496 2.186 6.188-.704-1.516-1.194-3.209-1.194-5.02 0-.394.025-.779.067-1.152l10.19 3.574v2.92H1.1zm20.016-6.623l-7.814-5.222a9.928 9.928 0 013.596-2.592l4.218 4.312v3.502zm0 3.348l-10.096-3.86a9.886 9.886 0 011.874-4.214l8.222 5.112v2.962zM9.92 18.91L.543 15.321a19.732 19.732 0 012.698-6.21l8.385 5.213A9.844 9.844 0 009.92 18.91zm72.373 10.394c-1.545.498-3.444.79-5.277.79-7.872 0-9.991-4.946-9.991-9.424 0-6.406 3.76-10.74 10.81-10.74 1.49 0 3.038.174 4.363.494l-.566 4.133a15.315 15.315 0 00-3.889-.532c-3.447 0-5.31 2.313-5.31 5.885 0 3.894 1.707 6.027 5.561 6.027 1.11 0 2.72-.267 3.73-.701l.569 4.068zm36.19 0c-1.545.498-3.449.79-5.278.79-7.869 0-9.988-4.946-9.988-9.424 0-6.406 3.757-10.74 10.812-10.74 1.486 0 3.031.174 4.361.494l-.567 4.133a15.315 15.315 0 00-3.889-.532c-3.447 0-5.315 2.313-5.315 5.885 0 3.894 1.71 6.027 5.565 6.027 1.108 0 2.718-.267 3.733-.701l.567 4.068z" id="Fill-1" fill="#EA2629" mask="url(#mask-2)"/></g><path d="M137.915 16.53c0 1.386.018 3.05.061 4.55a43.923 43.923 0 00-1.004-1.81l-5.29-9.054h-5.548v19.568h4.636v-7.159c0-1.117-.015-2.493-.046-3.783.226.44.475.899.742 1.365l5.561 9.577h5.52V10.216h-4.632v6.314z" id="Fill-4" fill="#EB2227"/><mask id="mask-4" fill="#fff"><use xlink:href="#path-3"/></mask><path id="Fill-6" fill="#EB2227" mask="url(#mask-4)" d="M145.375 29.783h4.745V10.215h-4.745z"/><path d="M159.786 17.757c-1.69-.676-2.723-1.144-2.723-2.1 0-1.32 1.315-1.597 2.415-1.597.975 0 1.976.166 2.971.488l.708.233.464-4.387-.536-.11c-1.07-.23-2.392-.37-3.442-.37-4.581 0-7.54 2.405-7.54 6.127 0 3.84 2.904 4.967 5.023 5.791 1.724.67 2.7 1.1 2.7 2.15 0 1.56-1.547 1.79-2.467 1.79a9.877 9.877 0 01-3.772-.744l-.74-.301-.529 4.712.504.133c1.29.345 2.73.512 4.404.512 4.46 0 7.7-2.749 7.7-6.536 0-3.733-2.97-4.922-5.14-5.791" id="Fill-8" fill="#EB2227" mask="url(#mask-4)"/><path d="M171.429 14.2c.198-.003.4-.003.609-.003 1.915-.033 2.893.779 2.893 2.415 0 1.582-1.182 2.58-3.07 2.605a6.58 6.58 0 01-.432-.016v-5zm.785-4.097c-2.007 0-3.583.037-4.958.112l-.571.032v19.536h4.744v-6.427c.218.008.42.008.592.008 4.586 0 7.788-2.865 7.788-6.97 0-3.997-2.769-6.29-7.595-6.29z" id="Fill-9" fill="#EB2227" mask="url(#mask-4)"/><path d="M128.347 48.496l-2.194-9.247h2.232l.7 3.815c.207 1.097.4 2.29.548 3.223h.03c.15-1.004.37-2.113.603-3.251l.783-3.787h2.222l.739 3.897c.206 1.083.36 2.07.496 3.1h.027c.136-1.03.344-2.113.537-3.21l.751-3.787h2.129l-2.389 9.247H133.3l-.783-3.979a33.688 33.688 0 01-.44-2.853h-.026c-.166 1.04-.316 1.92-.536 2.853l-.877 3.979h-2.29z" id="Fill-10" fill="#020303" mask="url(#mask-4)"/><path d="M138.998 48.495h2.086v-6.708h-2.086v6.708zm2.156-8.573c0 .576-.441 1.04-1.125 1.04-.66 0-1.1-.464-1.084-1.04-.015-.604.425-1.059 1.095-1.059.673 0 1.099.455 1.114 1.059z" id="Fill-11" fill="#020303" mask="url(#mask-4)"/><path d="M145.13 39.867v1.92h1.496v1.537h-1.497v2.426c0 .81.192 1.182.823 1.182.26 0 .47-.029.617-.055l.013 1.576c-.271.112-.765.178-1.356.178-.671 0-1.235-.233-1.563-.574-.385-.4-.577-1.042-.577-1.99v-2.743h-.891v-1.538h.892v-1.455l2.042-.464z" id="Fill-12" fill="#020303" mask="url(#mask-4)"/><path d="M147.989 38.757h2.086v3.825h.028c.216-.288.491-.506.823-.684a2.319 2.319 0 011.083-.263c1.332 0 2.345.92 2.345 2.936v3.926h-2.085v-3.691c0-.879-.302-1.482-1.084-1.482-.546 0-.89.355-1.042.726a1.328 1.328 0 00-.068.468v3.979h-2.086v-9.74z" id="Fill-13" fill="#020303" mask="url(#mask-4)"/><path d="M161.092 48.496v-3.787l-2.924-5.46h2.389l.944 2.222c.29.672.482 1.165.716 1.77h.024c.207-.576.427-1.11.702-1.77l.933-2.222h2.346l-3.046 5.393v3.854h-2.084z" id="Fill-14" fill="#020303" mask="url(#mask-4)"/><path d="M167.478 45.134c0 1.152.48 2.018 1.372 2.018.81 0 1.33-.81 1.33-2.018 0-1.002-.383-2.016-1.33-2.016-1 0-1.372 1.029-1.372 2.016m4.858-.068c0 2.455-1.745 3.579-3.541 3.579-1.96 0-3.47-1.287-3.47-3.456s1.426-3.554 3.58-3.554c2.057 0 3.43 1.413 3.43 3.43" id="Fill-15" fill="#020303" mask="url(#mask-4)"/><path d="M179.799 46.342c0 .875.028 1.591.055 2.154h-1.812l-.096-.947h-.04c-.26.413-.892 1.097-2.099 1.097-1.359 0-2.36-.851-2.36-2.922v-3.937h2.099v3.61c0 .973.316 1.56 1.043 1.56.576 0 .906-.397 1.04-.725.057-.125.07-.288.07-.454v-3.99h2.1v4.554z" id="Fill-16" fill="#020303" mask="url(#mask-4)"/></g></g></svg>